<svg width="246" height="246" viewBox="0 0 246 246" fill="none" xmlns="http://www.w3.org/2000/svg">
<path d="M192.879 80.4209C192.889 85.7247 191.819 90.9751 189.734 95.852C187.649 100.729 184.593 105.13 180.752 108.788L180.733 108.807C176.835 106.91 172.525 106.013 168.194 106.198C163.862 106.382 159.645 107.642 155.922 109.864C154.305 99.7742 149.627 90.4247 142.522 83.0806C135.417 75.7366 126.227 70.7526 116.197 68.8031V68.7839C118.982 59.8239 124.887 52.1591 132.84 47.1802C140.793 42.2014 150.267 40.2384 159.544 41.6473C168.821 43.0562 177.285 47.7438 183.401 54.8594C189.517 61.9751 192.88 71.0475 192.879 80.4305V80.4209Z" fill="#F7B634"/>
<path d="M178.369 83.7938C177.477 83.7938 176.622 83.4394 175.991 82.8087C175.36 82.178 175.006 81.3225 175.006 80.4305C175.001 74.7708 172.751 69.3444 168.749 65.342C164.747 61.3397 159.321 59.0884 153.662 59.0823C152.77 59.0823 151.914 58.728 151.283 58.0972C150.653 57.4665 150.298 56.611 150.298 55.719C150.298 54.827 150.653 53.9716 151.283 53.3408C151.914 52.7101 152.77 52.3557 153.662 52.3557C161.104 52.3639 168.239 55.324 173.502 60.5865C178.764 65.8491 181.724 72.9843 181.733 80.4266C181.733 80.8686 181.646 81.3062 181.477 81.7146C181.308 82.123 181.061 82.4941 180.748 82.8068C180.436 83.1194 180.065 83.3675 179.657 83.5369C179.249 83.7062 178.811 83.7935 178.369 83.7938V83.7938Z" fill="white"/>
<path d="M180.506 37.6688C179.915 37.6678 179.335 37.5112 178.823 37.2146C178.312 36.9181 177.888 36.4921 177.594 35.9795C177.299 35.4669 177.145 34.8858 177.147 34.2947C177.148 33.7036 177.305 33.1233 177.602 32.6123L184.267 21.1598C184.74 20.441 185.47 19.9304 186.307 19.7332C187.144 19.536 188.025 19.6671 188.769 20.0996C189.513 20.5321 190.062 21.233 190.305 22.0583C190.547 22.8836 190.465 23.7705 190.073 24.5366L183.41 35.989C183.115 36.4982 182.692 36.9211 182.182 37.2158C181.673 37.5105 181.095 37.6666 180.506 37.6688V37.6688Z" fill="#F7B634"/>
<path d="M107.531 56.9413C106.937 56.9423 106.354 56.7843 105.842 56.4839L94.389 49.8188C93.9904 49.6057 93.6389 49.3144 93.3554 48.9623C93.0719 48.6102 92.8622 48.2046 92.739 47.7697C92.6158 47.3348 92.5815 46.8795 92.6382 46.431C92.6949 45.9826 92.8415 45.5501 93.0691 45.1596C93.2966 44.769 93.6006 44.4284 93.9628 44.1579C94.325 43.8875 94.7381 43.6929 95.1772 43.5856C95.6163 43.4784 96.0726 43.4608 96.5186 43.5339C96.9647 43.607 97.3915 43.7692 97.7735 44.0109L109.226 50.6779C109.865 51.0502 110.363 51.6226 110.644 52.3065C110.925 52.9905 110.972 53.7479 110.779 54.4617C110.586 55.1754 110.163 55.8056 109.576 56.2549C108.989 56.7042 108.27 56.9474 107.531 56.9471V56.9413Z" fill="#F7B634"/>
<path d="M211.239 117.304C210.646 117.303 210.064 117.145 209.552 116.846L198.099 110.179C197.712 109.96 197.372 109.666 197.099 109.315C196.826 108.963 196.625 108.561 196.509 108.131C196.393 107.702 196.363 107.253 196.421 106.812C196.479 106.371 196.625 105.945 196.848 105.561C197.072 105.176 197.37 104.839 197.725 104.571C198.08 104.302 198.484 104.106 198.915 103.995C199.346 103.884 199.795 103.86 200.236 103.923C200.676 103.987 201.1 104.137 201.482 104.366L212.934 111.031C213.573 111.403 214.072 111.976 214.353 112.66C214.634 113.344 214.682 114.102 214.489 114.816C214.296 115.53 213.873 116.161 213.286 116.611C212.698 117.06 211.979 117.304 211.239 117.304V117.304Z" fill="#F7B634"/>
<path d="M126.817 37.6687C126.228 37.669 125.649 37.5147 125.139 37.2213C124.628 36.9279 124.203 36.5056 123.907 35.9967L117.234 24.5366C116.809 23.7668 116.702 22.8611 116.937 22.0135C117.171 21.1659 117.728 20.4436 118.488 20.0013C119.248 19.5589 120.151 19.4317 121.003 19.6468C121.856 19.8619 122.591 20.4022 123.05 21.1522L129.727 32.6046C130.026 33.1163 130.185 33.6979 130.187 34.2906C130.189 34.8833 130.035 35.4661 129.74 35.9801C129.444 36.494 129.018 36.9208 128.505 37.2174C127.992 37.5139 127.41 37.6696 126.817 37.6687V37.6687Z" fill="#F7B634"/>
<path d="M199.794 56.9413C199.054 56.9424 198.335 56.6994 197.747 56.2501C197.159 55.8007 196.736 55.17 196.542 54.4556C196.349 53.7413 196.397 52.9832 196.679 52.2989C196.96 51.6145 197.459 51.0421 198.099 50.6702L209.552 44.0052C209.934 43.7767 210.357 43.6264 210.798 43.5628C211.238 43.4993 211.687 43.5238 212.118 43.6349C212.549 43.7461 212.954 43.9417 213.308 44.2104C213.663 44.4791 213.961 44.8156 214.185 45.2003C214.409 45.585 214.554 46.0103 214.612 46.4515C214.67 46.8928 214.641 47.3412 214.524 47.7708C214.408 48.2004 214.207 48.6026 213.934 48.9542C213.662 49.3058 213.322 49.5996 212.934 49.8188L201.482 56.4858C200.97 56.7847 200.387 56.9419 199.794 56.9413V56.9413Z" fill="#F7B634"/>
<path d="M198.862 208.383C203.641 208.402 208.373 207.443 212.767 205.565C217.161 203.687 221.124 200.929 224.412 197.462C227.701 193.995 230.244 189.891 231.887 185.404C233.53 180.916 234.237 176.14 233.965 171.369C233.692 166.598 232.446 161.934 230.304 157.662C228.161 153.391 225.167 149.604 221.505 146.533C217.844 143.462 213.592 141.174 209.013 139.808C204.434 138.442 199.623 138.027 194.878 138.59C196.082 133.568 195.78 128.303 194.01 123.452C192.239 118.601 189.078 114.379 184.922 111.313C180.766 108.248 175.799 106.475 170.641 106.216C165.484 105.957 160.364 107.223 155.922 109.856C154.869 103.326 152.528 97.0699 149.035 91.4525C145.542 85.8351 140.966 80.9685 135.575 77.1358C130.184 73.303 124.084 70.5807 117.631 69.1271C111.178 67.6736 104.5 67.5178 97.9858 68.669C91.4718 69.8201 85.2519 72.2552 79.6877 75.8324C74.1236 79.4097 69.3264 84.0578 65.5753 89.5062C61.8241 94.9546 59.194 101.095 57.8377 107.569C56.4815 114.043 56.4264 120.723 57.6755 127.219C52.1619 126.559 46.5717 127.034 41.2484 128.614C35.9251 130.194 30.9812 132.847 26.7205 136.408C22.4598 139.969 18.9724 144.363 16.4725 149.322C13.9726 154.28 12.5131 159.697 12.1836 165.24C11.8542 170.784 12.6617 176.335 14.5567 181.555C16.4517 186.775 19.3941 191.551 23.2029 195.592C27.0118 199.633 31.6068 202.852 36.7054 205.052C41.8041 207.251 47.2987 208.385 52.8516 208.383H198.862Z" fill="white"/>
<path d="M92.4038 157.229C92.0397 157.358 91.6561 157.423 91.2698 157.421C90.5743 157.418 89.8965 157.201 89.3289 156.799C88.7614 156.397 88.3318 155.829 88.0988 155.174C85.7538 148.614 81.6307 142.835 76.1902 138.484C70.7497 134.132 64.2062 131.38 57.2911 130.534C56.4275 130.437 55.6356 130.007 55.0831 129.336C54.5306 128.666 54.261 127.806 54.3314 126.94C55.4461 126.978 56.58 127.094 57.6755 127.226C57.4641 126.132 57.2911 125.017 57.1566 123.882C57.4604 123.823 57.7715 123.811 58.0791 123.846C66.2385 124.849 73.9589 128.099 80.3793 133.233C86.7997 138.368 91.6679 145.185 94.4409 152.924C94.7376 153.765 94.69 154.689 94.3085 155.495C93.9269 156.302 93.2423 156.925 92.4038 157.229V157.229Z" fill="#5893D4"/>
<path d="M114.886 91.1257C114.585 91.1259 114.286 91.0851 113.996 91.0047C111.121 90.2224 108.14 89.9052 105.165 90.0649C104.274 90.113 103.401 89.8054 102.737 89.2096C102.073 88.6138 101.673 87.7787 101.625 86.888C101.577 85.9973 101.884 85.1239 102.48 84.46C103.076 83.7961 103.911 83.3961 104.802 83.3479C108.497 83.1514 112.201 83.5459 115.772 84.5164C116.556 84.7327 117.236 85.2258 117.684 85.9044C118.133 86.583 118.321 87.4013 118.213 88.2077C118.105 89.014 117.708 89.7539 117.096 90.2904C116.485 90.8269 115.699 91.1237 114.886 91.1257Z" fill="#5893D4"/>
<path d="M75.5662 121.118C74.6744 121.118 73.8192 120.763 73.1886 120.133C72.5579 119.502 72.2034 118.647 72.2029 117.755C72.2156 111.721 73.8062 105.796 76.8169 100.567C79.8275 95.3379 84.1535 90.9873 89.3653 87.9469C89.7471 87.725 90.169 87.5804 90.6067 87.5214C91.0444 87.4625 91.4895 87.4903 91.9165 87.6034C92.3434 87.7164 92.744 87.9125 93.0952 88.1803C93.4464 88.4482 93.7414 88.7826 93.9634 89.1644C94.1853 89.5463 94.3299 89.9681 94.3889 90.4059C94.4478 90.8436 94.4199 91.2887 94.3069 91.7156C94.1938 92.1426 93.9978 92.5431 93.73 92.8943C93.4621 93.2455 93.1277 93.5405 92.7458 93.7625C88.5507 96.2096 85.0684 99.7114 82.6447 103.92C80.2211 108.129 78.9403 112.898 78.9295 117.755C78.929 118.647 78.5745 119.502 77.9438 120.133C77.3132 120.763 76.458 121.118 75.5662 121.118V121.118Z" fill="#5893D4"/>
<path d="M215.083 176.73C214.191 176.73 213.335 176.376 212.705 175.745C212.074 175.114 211.72 174.259 211.72 173.367C211.714 169.958 210.358 166.691 207.948 164.281C205.538 161.871 202.271 160.514 198.862 160.509C196.03 160.5 193.275 161.435 191.034 163.167C190.684 163.436 190.284 163.634 189.858 163.749C189.431 163.863 188.986 163.893 188.548 163.836C188.111 163.778 187.688 163.635 187.305 163.415C186.923 163.194 186.587 162.9 186.318 162.55C186.049 162.2 185.851 161.8 185.737 161.374C185.622 160.947 185.593 160.502 185.65 160.064C185.707 159.626 185.85 159.204 186.071 158.821C186.291 158.439 186.585 158.103 186.935 157.834C190.347 155.198 194.539 153.774 198.851 153.787C204.043 153.792 209.021 155.857 212.693 159.528C216.365 163.2 218.429 168.178 218.435 173.37C218.433 174.26 218.08 175.112 217.452 175.742C216.824 176.371 215.972 176.726 215.083 176.73Z" fill="#5893D4"/>
<path d="M157.613 112.716C152.447 115.8 148.678 120.768 147.1 126.575C146.913 127.293 146.492 127.928 145.904 128.38C145.316 128.832 144.594 129.076 143.852 129.073C143.56 129.082 143.268 129.044 142.988 128.96C142.56 128.847 142.159 128.651 141.808 128.383C141.457 128.115 141.162 127.78 140.941 127.398C140.719 127.015 140.575 126.593 140.518 126.155C140.46 125.717 140.489 125.272 140.604 124.845C142.639 117.338 147.511 110.915 154.192 106.933C154.529 106.746 154.891 106.611 155.268 106.531C155.518 107.627 155.749 108.74 155.922 109.854C156.885 109.281 157.887 108.775 158.92 108.338C159.3 109.097 159.376 109.972 159.133 110.786C158.891 111.599 158.347 112.289 157.613 112.716Z" fill="#5893D4"/>
<path d="M153.654 41.1954C154.792 41.1954 155.912 41.2704 157.025 41.3645V13.8029C157.025 12.9109 156.671 12.0555 156.04 11.4247C155.409 10.794 154.554 10.4396 153.662 10.4396C152.77 10.4396 151.914 10.794 151.283 11.4247C150.653 12.0555 150.298 12.9109 150.298 13.8029V41.3395C151.405 41.2447 152.524 41.1967 153.654 41.1954Z" fill="#F7B634"/>
<path d="M220.285 77.0672H192.71C192.804 78.1761 192.879 79.2908 192.879 80.4247C192.879 81.5586 192.799 82.6791 192.704 83.7938H220.285C221.177 83.7938 222.033 83.4394 222.664 82.8087C223.294 82.1779 223.649 81.3225 223.649 80.4305C223.649 79.5385 223.294 78.683 222.664 78.0523C222.033 77.4215 221.177 77.0672 220.285 77.0672Z" fill="#F7B634"/>
<path d="M123 235.56C118.405 235.56 113.998 233.735 110.749 230.486C107.5 227.237 105.674 222.83 105.674 218.235C105.574 201.705 123 181.206 123 181.206C123 181.206 140.426 201.705 140.326 218.235C140.326 220.51 139.878 222.763 139.007 224.865C138.136 226.967 136.86 228.877 135.251 230.486C133.642 232.095 131.732 233.371 129.63 234.242C127.528 235.112 125.275 235.56 123 235.56Z" fill="#5893D4"/>
<path d="M72.3317 225.286C69.4737 225.286 66.7328 224.151 64.7119 222.13C62.6911 220.109 61.5557 217.368 61.5557 214.51C61.4923 204.23 72.3317 191.48 72.3317 191.48C72.3317 191.48 83.1691 204.23 83.1076 214.51C83.1076 217.368 81.9723 220.109 79.9514 222.13C77.9306 224.151 75.1897 225.286 72.3317 225.286Z" fill="#5893D4"/>
<path d="M173.668 225.286C170.81 225.286 168.069 224.151 166.049 222.13C164.028 220.109 162.892 217.368 162.892 214.51C162.831 204.23 173.668 191.48 173.668 191.48C173.668 191.48 184.508 204.23 184.444 214.51C184.444 217.368 183.309 220.109 181.288 222.13C179.267 224.151 176.526 225.286 173.668 225.286Z" fill="#5893D4"/>
</svg>
